<svg xmlns="http://www.w3.org/2000/svg" viewBox="0 0 1200 630" role="img" aria-label="Ink preview image">
  <rect width="1200" height="630" fill="#15141a"/>
  <rect x="72" y="72" width="1056" height="486" rx="44" fill="#1d1b24" stroke="#343041" stroke-width="2"/>
  <rect x="126" y="126" width="120" height="120" rx="30" fill="#6f5cff"/>
  <path d="M166 158h38c22 0 40 18 40 40v51c0 6-7 10-12 6l-12-7c-6-4-13-6-20-6h-34c-8 0-14-6-14-14v-56c0-8 6-14 14-14Z" fill="none" stroke="#fff" stroke-width="10" stroke-linejoin="round"/>
  <path d="M182 190h40M182 212h32" stroke="#fff" stroke-width="10" stroke-linecap="round"/>
  <text x="296" y="198" fill="#f7f3ff" font-family="Inter, Arial, sans-serif" font-size="76" font-weight="800">Ink</text>
  <text x="296" y="274" fill="#d9d3ff" font-family="Inter, Arial, sans-serif" font-size="34" font-weight="600">Private notes workspace</text>
  <text x="126" y="394" fill="#bfb7d9" font-family="Inter, Arial, sans-serif" font-size="30">Write, tag, pin, archive, and search your notes.</text>
  <text x="126" y="444" fill="#bfb7d9" font-family="Inter, Arial, sans-serif" font-size="30">Organize ideas with tags, pinning, archive, and search.</text>
</svg>

